# xmcd
# Track frame offsets:
# 150
# 18520
# 35648
# 53583
# 69610
# 87044
# 104388
# 119746
# 135419
#
# Disc length: 2022 seconds
# Revision: 0
# Processed by: cddbd v1.5.2PL0 Copyright (c) Steve Scherf et al.
# Submitted via: VisiTrax 2.11.3.279 - For more info visit www.synapsa.com
#
DISCID=7607e409
DTITLE=Dawson. Peter - all the rivers in between
DYEAR=2017
DGENRE=Country
TTITLE0=Fisherman's Daughter
TTITLE1=Johnny Was A Boy
TTITLE2=Breaking In Brumbies
TTITLE3=Moonbi No. 1
TTITLE4=Satellites and Planes
TTITLE5=Lazy Moon
TTITLE6=Morning Ride
TTITLE7=All The Rivers In Between
TTITLE8=Moving On
EXTD=
EXTT0=
EXTT1=
EXTT2=
EXTT3=
EXTT4=
EXTT5=
EXTT6=
EXTT7=
EXTT8=
PLAYORDER=
